<?xml version="1.0" encoding="iso-8859-1"?>
<!-- Generator: Adobe Illustrator 16.0.0, SVG Export Plug-In . SVG Version: 6.00 Build 0)  -->
<!DOCTYPE svg PUBLIC "-//W3C//DTD SVG 1.1//EN" "http://www.w3.org/Graphics/SVG/1.1/DTD/svg11.dtd">
<svg version="1.1" id="Capa_1" xmlns="http://www.w3.org/2000/svg" xmlns:xlink="http://www.w3.org/1999/xlink" x="0px" y="0px"
	 width="289.421px" height="289.421px" viewBox="0 0 289.421 289.421" style="enable-background:new 0 0 289.421 289.421;"
	 xml:space="preserve">
<g>
	<g>
		<path d="M198.05,111.681c0-59.463-48.382-107.841-107.845-107.841c-29.425,0-56.922,11.633-77.413,32.756
			c-0.333,0.339-0.601,0.732-0.822,1.153C4.241,46.263,0,57.205,0,68.704c0,25.441,20.695,46.137,46.131,46.137
			c7.833,0,14.203,6.37,14.203,14.197c0,4.068-1.754,7.95-4.807,10.643c-0.291,0.253-0.543,0.536-0.764,0.843
			c-0.349,0.312-0.698,0.63-1.026,0.958c-0.161,0.14-0.318,0.289-0.462,0.452c-0.071,0.074-0.134,0.155-0.2,0.236
			c-7.95,8.57-12.32,19.677-12.32,31.321c0,22.514,16.105,41.616,38.294,45.429c2.785,0.482,5.35,0.714,7.848,0.714
			c0.913,0,1.812-0.062,2.714-0.127l-0.005-0.031c0.2,0.021,0.398,0.036,0.598,0.036C149.668,219.521,198.05,171.144,198.05,111.681
			z M88.849,208.791c-2.488,0.174-5.042,0.049-7.982-0.455c-17.014-2.919-29.36-17.575-29.36-34.835
			c0-9.009,3.426-17.606,9.638-24.211c0.021-0.021,0.042-0.042,0.066-0.062c0.262-0.281,0.559-0.533,0.848-0.791l0.813-0.732
			c0.273-0.252,0.514-0.535,0.719-0.838c4.78-4.682,7.493-11.104,7.493-17.824c0-13.756-11.191-24.949-24.953-24.949
			c-19.506,0-35.381-15.874-35.381-35.386c0-9.133,3.494-17.813,9.842-24.441c0.292-0.308,0.544-0.651,0.749-1.021
			C39.703,24.761,64.113,14.596,90.21,14.596c53.534,0,97.088,43.557,97.088,97.09c0,53.254-43.098,96.635-96.24,97.092
			c-0.407-0.074-0.838-0.096-1.263-0.064C89.78,208.703,88.856,208.791,88.849,208.791z"/>
		<path d="M48.213,40.095c-10.129,0-18.368,8.242-18.368,18.367c0,10.129,8.239,18.368,18.368,18.368
			c10.125,0,18.367-8.239,18.367-18.368C66.58,48.336,58.333,40.095,48.213,40.095z"/>
		<path d="M94.67,63.837c10.128,0,18.367-8.239,18.367-18.368c0-10.126-8.239-18.367-18.367-18.367
			c-10.126,0-18.368,8.241-18.368,18.367C76.303,55.599,84.544,63.837,94.67,63.837z"/>
		<path d="M140.97,76.83c10.128,0,18.36-8.239,18.36-18.368c0-10.125-8.232-18.367-18.36-18.367
			c-10.134,0-18.373,8.242-18.373,18.367C122.597,68.591,130.835,76.83,140.97,76.83z"/>
		<path d="M135.594,104.321c0,10.126,8.234,18.368,18.36,18.368c10.131,0,18.373-8.242,18.373-18.368
			c0-10.125-8.242-18.368-18.373-18.368C143.828,85.953,135.594,94.19,135.594,104.321z"/>
		<path d="M140.97,170.31c10.128,0,18.36-8.242,18.36-18.368c0-10.126-8.232-18.368-18.36-18.368
			c-10.134,0-18.373,8.241-18.373,18.368C122.597,162.067,130.835,170.31,140.97,170.31z"/>
		<path d="M77.917,151.641c-10.129,0-18.368,9.645-18.368,21.492c0,11.853,8.239,21.502,18.368,21.502
			c10.125,0,18.368-9.649,18.368-21.502C96.285,161.285,88.042,151.641,77.917,151.641z M77.917,183.884
			c-4.134,0-7.617-4.924-7.617-10.751c0-5.817,3.482-10.741,7.617-10.741s7.617,4.924,7.617,10.741
			C85.533,178.96,82.051,183.884,77.917,183.884z"/>
		<path d="M287.847,97.673c-1.25-1.247-3.036-1.803-4.763-1.491l-12.204,2.22c-1.004,0.184-1.926,0.646-2.677,1.333l-95.183,87.582
			c-1.082,0.997-1.701,2.383-1.732,3.843c0,0.062,0.031,0.114,0.031,0.183c-0.116,0-0.221-0.058-0.337-0.053
			c-1.521,0.086-2.939,0.815-3.9,2.011l-30.569,38.164c-0.924,1.155-1.252,2.571-1.107,3.937c-2.366-0.818-4.848-1.345-7.428-1.345
			c-6.124,0-11.869,2.415-16.187,6.783c-2.992,3.022-7.008,15.88-11.927,38.205c-0.394,1.795,0.149,3.67,1.457,4.966
			c1.016,1.019,2.385,1.57,3.795,1.57c0.391,0,0.784-0.048,1.175-0.132l24.077-5.401c1.604-0.395,9.8-2.576,13.792-6.619
			c6.262-6.342,8.008-15.465,5.435-23.455c0.36,0.074,0.72,0.21,1.093,0.21c1.186,0,2.372-0.383,3.358-1.175l38.175-30.568
			c1.187-0.96,1.916-2.378,2-3.9c0.005-0.109-0.047-0.21-0.047-0.314c0.021,0,0.041,0.011,0.062,0.011c0.041,0,0.072,0,0.116,0
			c1.459-0.031,2.854-0.662,3.847-1.732l87.581-95.186c0.688-0.748,1.15-1.677,1.329-2.677l2.221-12.202
			C289.651,100.699,289.096,98.919,287.847,97.673z M136.519,265.858c-1.226,1.249-5.504,2.939-8.618,3.716l-15.625,3.509
			c2.767-11.539,5.895-22.731,7.171-24.694c2.278-2.309,5.31-3.581,8.535-3.581c3.225,0,6.257,1.272,8.536,3.581
			C141.276,253.219,141.276,261.049,136.519,265.858z M276.817,111.179l-82.737,89.912l-9.658-9.658l89.918-82.731l3.028-0.553
			L276.817,111.179z"/>
	</g>
</g>
<g>
</g>
<g>
</g>
<g>
</g>
<g>
</g>
<g>
</g>
<g>
</g>
<g>
</g>
<g>
</g>
<g>
</g>
<g>
</g>
<g>
</g>
<g>
</g>
<g>
</g>
<g>
</g>
<g>
</g>
</svg>
